HIERARCHY
ROOT Hips
{
 OFFSET 0.000000 0.000000 0.000000
 CHANNELS 6 Xposition Yposition Zposition Yrotation Xrotation Zrotation
 JOINT Chest
 {
  OFFSET 0.000000 10.383400 0.001500
  CHANNELS 3 Yrotation Xrotation Zrotation
  JOINT Chest2
  {
   OFFSET 0.000000 10.418200 -0.003100
   CHANNELS 3 Yrotation Xrotation Zrotation
   JOINT Chest3
   {
    OFFSET 0.000000 10.375100 0.000000
    CHANNELS 3 Yrotation Xrotation Zrotation
    JOINT Chest4
    {
     OFFSET 0.000000 10.364600 0.000000
     CHANNELS 3 Yrotation Xrotation Zrotation
     JOINT Neck
     {
      OFFSET 0.000000 15.642200 0.000000
      CHANNELS 3 Yrotation Xrotation Zrotation
      JOINT Head
      {
       OFFSET 0.000000 9.697300 -0.006500
       CHANNELS 3 Yrotation Xrotation Zrotation
       End Site
       {
        OFFSET 0.000000 18.492200 -0.003400
       }
      }
     }
     JOINT RightCollar
     {
      OFFSET -3.166800 10.349300 0.000000
      CHANNELS 3 Yrotation Xrotation Zrotation
      JOINT RightShoulder
      {
       OFFSET -14.729700 0.000000 0.000000
       CHANNELS 3 Yrotation Xrotation Zrotation
       JOINT RightElbow
       {
        OFFSET 0.000000 -32.224300 0.000000
        CHANNELS 3 Yrotation Xrotation Zrotation
        JOINT RightWrist
        {
         OFFSET 0.000000 -26.084100 0.000000
         CHANNELS 3 Yrotation Xrotation Zrotation
         End Site
         {
          OFFSET 0.000000 -19.319400 0.000000
         }
        }
       }
      }
     }
     JOINT LeftCollar
     {
      OFFSET 3.166800 10.349300 0.000000
      CHANNELS 3 Yrotation Xrotation Zrotation
      JOINT LeftShoulder
      {
       OFFSET 14.729700 0.000000 0.000000
       CHANNELS 3 Yrotation Xrotation Zrotation
       JOINT LeftElbow
       {
        OFFSET 0.000000 -32.224300 0.000000
        CHANNELS 3 Yrotation Xrotation Zrotation
        JOINT LeftWrist
        {
         OFFSET 0.000000 -26.084100 0.000000
         CHANNELS 3 Yrotation Xrotation Zrotation
         End Site
         {
          OFFSET 0.000000 -19.319400 0.000000
         }
        }
       }
      }
     }
    }
   }
  }
 }
 JOINT RightHip
 {
  OFFSET -8.428900 -0.007500 -0.000800
  CHANNELS 3 Yrotation Xrotation Zrotation
  JOINT RightKnee
  {
   OFFSET 0.000000 -43.834600 0.000700
   CHANNELS 3 Yrotation Xrotation Zrotation
   JOINT RightAnkle
   {
    OFFSET 0.000000 -42.757000 0.001200
    CHANNELS 3 Yrotation Xrotation Zrotation
    JOINT RightToe
    {
     OFFSET 0.000000 -6.946900 15.649300
     CHANNELS 3 Yrotation Xrotation Zrotation
     End Site
     {
      OFFSET 0.000000 -1.580800 6.825800
     }
    }
   }
  }
 }
 JOINT LeftHip
 {
  OFFSET 8.428900 -0.007500 -0.000800
  CHANNELS 3 Yrotation Xrotation Zrotation
  JOINT LeftKnee
  {
   OFFSET 0.000000 -43.834600 0.000700
   CHANNELS 3 Yrotation Xrotation Zrotation
   JOINT LeftAnkle
   {
    OFFSET 0.000000 -42.757000 0.001200
    CHANNELS 3 Yrotation Xrotation Zrotation
    JOINT LeftToe
    {
     OFFSET 0.000000 -6.946900 15.649300
     CHANNELS 3 Yrotation Xrotation Zrotation
     End Site
     {
      OFFSET 0.000000 -1.580800 6.825800
     }
    }
   }
  }
 }
}
MOTION
Frames: 15
Frame Time: 0.008333
0.000000 93.354300 0.000000 0.000000 -5.767877 0.000000 0.000000 11.653817 0.000000 0.000000 -5.885947 0.000000 0.000000 -0.000000 0.000000 0.000000 -0.000000 0.000000 0.000000 12.528835 0.000000 0.000000 0.711642 0.000000 0.000000 -0.000000 0.000000 0.000000 0.000000 -90.000000 0.000000 -2.309062 0.000000 0.000000 2.309062 0.000000 0.000000 -0.000000 0.000000 0.000000 -0.000000 90.000000 0.000000 -2.309062 0.000000 0.000000 2.309062 0.000000 0.000000 8.520406 0.000000 0.000000 1.905762 0.000000 -0.000000 -4.658285 0.000000 0.000000 -0.000000 0.000000 0.000000 8.520406 0.000000 0.000000 1.905762 0.000000 -0.000000 -4.658285 0.000000 0.000000 -0.000000 0.000000
1.102715 151.188092 -9.285479 174.329619 -13.795320 -3.644815 -0.287111 14.979304 2.251070 -0.048562 1.380021 0.209915 -0.084272 2.326993 0.349722 -0.281132 13.373355 2.002275 -1.908491 13.843300 -1.573388 -1.672226 -11.213882 -1.079688 5.614375 -1.782559 -0.031217 16.681265 -16.945426 -13.713371 56.209799 -47.422148 -30.370863 17.472261 -3.122530 -25.314360 -7.190861 -0.225186 -0.902797 -2.673867 -20.966572 8.686571 -23.522722 -57.828653 0.886601 -13.396521 -2.901903 7.812135 1.277253 -52.573457 10.623725 -108.524765 83.637333 -104.528030 -2.535006 -23.442990 0.290772 -0.008299 0.008586 -0.002778 2.276969 -54.271342 -5.070934 100.047029 80.924655 107.079719 9.701101 -20.537151 -10.300245 0.011540 -0.005494 0.004067
0.643800 143.215213 -8.561150 174.326857 -13.796807 -3.641436 -0.286215 14.981984 2.245616 -0.049655 1.380027 0.211134 -0.083317 2.327475 0.347807 -0.281672 13.374374 1.999771 -1.913820 13.807160 -1.462202 -1.673060 -11.221824 -1.059120 5.614352 -1.788599 -0.040173 16.676288 -16.948323 -13.700055 56.187722 -47.429767 -30.344157 17.423903 -3.127558 -25.323253 -7.193601 -0.224405 -0.889809 -2.667071 -20.972745 8.674886 -23.516419 -57.825109 0.884635 -13.378159 -2.897355 7.796082 1.292879 -52.570902 10.607148 -108.517301 83.642291 -104.515291 -2.536832 -23.440003 0.288770 -0.005622 0.003348 -0.002496 2.283816 -54.268152 -5.075468 100.043338 80.925344 107.076658 9.704179 -20.538882 -10.300240 0.007811 -0.003142 0.003467
0.265941 136.649289 -7.964645 174.322181 -13.798186 -3.639661 -0.282794 14.983767 2.240673 -0.049704 1.381253 0.213747 -0.082698 2.326867 0.344919 -0.279185 13.375455 1.998886 -1.917490 13.783096 -1.380896 -1.685497 -11.238702 -1.005484 5.608446 -1.794156 -0.047981 16.674525 -16.951149 -13.687658 56.159952 -47.439762 -30.313820 17.415009 -3.130808 -25.331702 -7.196567 -0.225112 -0.881677 -2.664368 -20.974740 8.671246 -23.467728 -57.825506 0.842190 -13.370515 -2.886617 7.780697 1.302202 -52.568640 10.600061 -108.491879 83.642126 -104.490424 -2.535493 -23.437342 0.290212 -0.003798 0.000012 -0.001686 2.289330 -54.264987 -5.077658 100.031169 80.925133 107.065620 9.703255 -20.540611 -10.298368 0.004382 -0.000383 0.001945
-0.007067 131.907179 -7.533802 174.319953 -13.798774 -3.639771 -0.282183 14.984883 2.237620 -0.049423 1.381547 0.209087 -0.082568 2.326847 0.349518 -0.276022 13.375383 1.999882 -1.920760 13.764946 -1.316416 -1.700661 -11.258179 -0.937196 5.604773 -1.796453 -0.051940 16.656896 -16.955703 -13.681043 56.149029 -47.456998 -30.286716 17.425907 -3.128834 -25.335312 -7.209303 -0.220690 -0.869373 -2.654441 -20.983125 8.652593 -23.415635 -57.813413 0.803628 -13.315758 -2.896138 7.762826 1.305429 -52.567501 10.596101 -108.486181 83.645304 -104.484615 -2.536110 -23.436208 0.290777 -0.002157 -0.002502 -0.000958 2.293858 -54.266900 -5.080469 100.042578 80.922907 107.079112 9.702106 -20.539204 -10.296818 0.001631 -0.001605 0.000724
-0.179267 128.912122 -7.261611 174.317798 -13.798822 -3.643220 -0.280992 14.985894 2.239397 -0.050025 1.381642 0.208053 -0.082823 2.326752 0.349561 -0.273179 13.374497 2.001545 -1.924165 13.748052 -1.252725 -1.713835 -11.276469 -0.870064 5.603060 -1.796948 -0.057365 16.644952 -16.961212 -13.679038 56.115203 -47.477966 -30.248071 17.412349 -3.135864 -25.329960 -7.236876 -0.213989 -0.848777 -2.605219 -20.996619 8.616858 -23.368285 -57.802220 0.754160 -13.278758 -2.904390 7.746200 1.307569 -52.567746 10.595900 -108.478515 83.653604 -104.473792 -2.542861 -23.433678 0.289984 -0.000888 -0.004041 -0.000394 2.291570 -54.269746 -5.072095 100.062824 80.926297 107.097963 9.711954 -20.534968 -10.298108 0.004263 -0.002314 0.001892
-0.274922 127.264509 -7.110947 174.319910 -13.792631 -3.644047 -0.284121 14.980388 2.238906 -0.051617 1.382719 0.202723 -0.082306 2.325676 0.352913 -0.280075 13.375721 1.995507 -1.916633 13.734424 -1.199053 -1.730673 -11.296794 -0.786977 5.607700 -1.798353 -0.061825 16.643213 -16.967966 -13.674334 56.000496 -47.519305 -30.159238 17.402735 -3.152501 -25.316890 -7.238604 -0.213058 -0.834110 -2.584893 -20.999277 8.602538 -23.293039 -57.799635 0.686768 -13.251745 -2.906964 7.729201 1.307679 -52.576007 10.593861 -108.476859 83.657823 -104.471391 -2.549704 -23.430065 0.289808 0.001236 -0.005339 0.000548 2.289315 -54.277417 -5.067777 100.050371 80.937586 107.088357 9.687735 -20.530264 -10.287543 0.000093 -0.002550 0.000041
-0.320325 126.479941 -7.039179 174.319800 -13.789947 -3.648228 -0.284964 14.978496 2.238627 -0.049519 1.382916 0.200596 -0.082731 2.324808 0.358230 -0.279572 13.376175 1.992308 -1.916455 13.729949 -1.179121 -1.754807 -11.322607 -0.671734 5.600734 -1.795625 -0.071893 16.642241 -16.978902 -13.665591 55.944920 -47.544600 -30.110112 17.398217 -3.151476 -25.307185 -7.241626 -0.212784 -0.827328 -2.578558 -20.999249 8.597952 -23.197985 -57.801963 0.612126 -13.225726 -2.900703 7.700205 1.308786 -52.581610 10.592779 -108.498699 83.659404 -104.488566 -2.548301 -23.427827 0.287885 0.001765 -0.006680 0.000783 2.285197 -54.280786 -5.057025 100.030309 80.937082 107.069198 9.670574 -20.529029 -10.283692 -0.000647 -0.002606 -0.000287
-0.338676 126.159077 -7.009936 174.318955 -13.790312 -3.654332 -0.279587 14.981558 2.227579 -0.051403 1.380479 0.216279 -0.081441 2.326257 0.349843 -0.277343 13.375713 1.996910 -1.917612 13.704970 -1.073185 -1.762900 -11.329606 -0.639698 5.588133 -1.796700 -0.076015 16.644104 -16.985370 -13.655593 55.895757 -47.568699 -30.067943 17.404670 -3.148665 -25.297979 -7.253598 -0.208655 -0.803302 -2.551411 -21.006610 8.571669 -23.099017 -57.802402 0.525008 -13.205548 -2.888150 7.666521 1.307301 -52.581781 10.597359 -108.493410 83.662421 -104.479127 -2.548813 -23.427013 0.286537 0.002570 -0.006145 0.001141 2.280751 -54.280471 -5.043740 100.024561 80.937354 107.064993 9.655600 -20.528555 -10.279532 -0.002338 -0.001338 -0.001038
-0.344713 126.047580 -6.999617 174.318978 -13.790914 -3.661845 -0.277026 14.982634 2.232783 -0.049874 1.381856 0.208079 -0.080529 2.328082 0.339975 -0.268380 13.376587 1.995399 -1.921367 13.685643 -0.974237 -1.779547 -11.342466 -0.577490 5.576865 -1.805437 -0.067461 16.635812 -16.988827 -13.639169 55.847588 -47.593126 -30.027574 17.436417 -3.148019 -25.294393 -7.275579 -0.200258 -0.749050 -2.503456 -21.027729 8.515839 -23.028022 -57.795198 0.455365 -13.178012 -2.868682 7.621649 1.298980 -52.581140 10.608799 -108.488233 83.658212 -104.476961 -2.541887 -23.427496 0.288746 0.000961 -0.006007 0.000427 2.271938 -54.280652 -5.027698 100.035909 80.938020 107.077301 9.654463 -20.525695 -10.282321 -0.001569 -0.000046 -0.000697
-0.346146 126.015240 -6.996678 174.312091 -13.793809 -3.667149 -0.269458 14.985863 2.229647 -0.046180 1.383489 0.202948 -0.079366 2.327763 0.348463 -0.268327 13.375621 1.999081 -1.923892 13.679215 -0.940090 -1.810670 -11.361116 -0.465455 5.574296 -1.803515 -0.076961 16.617366 -17.003596 -13.625982 55.814582 -47.610470 -29.986407 17.419376 -3.142064 -25.286065 -7.279585 -0.199613 -0.740663 -2.488519 -21.028874 8.500272 -22.925831 -57.804486 0.363644 -13.146193 -2.840514 7.571493 1.301047 -52.579604 10.614598 -108.498477 83.662302 -104.483612 -2.544250 -23.429730 0.290211 -0.000810 -0.006424 -0.000359 2.265006 -54.279795 -5.009582 100.048280 80.937374 107.087931 9.660868 -20.522138 -10.287816 -0.000688 -0.001084 -0.000306
-0.347712 126.007760 -6.996716 174.319726 -13.799547 -3.666091 -0.277166 14.992770 2.221796 -0.039965 1.384162 0.203061 -0.082697 2.327267 0.350812 -0.268606 13.379892 1.991743 -1.930518 13.664274 -0.849798 -1.830154 -11.372584 -0.401201 5.581580 -1.812269 -0.093458 16.581301 -17.017017 -13.594813 55.815082 -47.614831 -29.968602 17.337079 -3.149060 -25.269860 -7.288850 -0.196779 -0.710270 -2.461503 -21.032473 8.470080 -22.816235 -57.816074 0.267729 -13.109107 -2.812488 7.517840 1.301559 -52.574355 10.604296 -108.536324 83.667718 -104.518163 -2.547477 -23.430298 0.289841 -0.000924 -0.007382 -0.000410 2.258109 -54.273964 -5.010459 100.049120 80.936792 107.087075 9.667125 -20.517990 -10.291495 -0.000493 -0.002100 -0.000219
-0.347997 126.006569 -6.996744 174.324242 -13.803225 -3.668956 -0.269457 14.996374 2.223693 -0.046608 1.385793 0.201477 -0.081877 2.326298 0.353199 -0.265262 13.394808 1.969712 -1.941901 13.643764 -0.743406 -1.852210 -11.384666 -0.335438 5.578258 -1.832046 -0.080041 16.555261 -17.028153 -13.576635 55.760513 -47.638150 -29.913165 17.355515 -3.151349 -25.266829 -7.310063 -0.188085 -0.655520 -2.422799 -21.049988 8.433631 -22.573360 -57.832361 0.060379 -13.132145 -2.783367 7.456993 1.299001 -52.570681 10.606101 -108.535237 83.669964 -104.516381 -2.548773 -23.431088 0.293287 0.000562 -0.007654 0.000250 2.247168 -54.271054 -5.005135 100.059699 80.939978 107.101984 9.676764 -20.511248 -10.301036 0.001528 -0.002363 0.000678
-0.348658 126.006563 -6.996545 174.326368 -13.805071 -3.668624 -0.268155 15.000193 2.217015 -0.048896 1.384593 0.206353 -0.079484 2.330498 0.346805 -0.261546 13.404376 1.963051 -1.954105 13.629196 -0.664282 -1.882751 -11.399541 -0.250387 5.574646 -1.848839 -0.068632 16.534596 -17.031096 -13.575337 55.702212 -47.679640 -29.847159 17.288799 -3.162057 -25.274318 -7.319471 -0.190434 -0.623108 -2.395198 -21.055997 8.410976 -22.381545 -57.847685 -0.108845 -13.110732 -2.758019 7.396832 1.299923 -52.568533 10.604498 -108.528505 83.670020 -104.509990 -2.548119 -23.431258 0.293766 0.000837 -0.006541 0.000372 2.237773 -54.267302 -4.998259 100.028029 80.938938 107.068996 9.667470 -20.505156 -10.304610 -0.000427 0.000446 -0.000190
-0.349286 126.006693 -6.996061 174.328139 -13.805311 -3.668543 -0.259435 15.013133 2.201609 -0.054495 1.378964 0.215280 -0.079073 2.332743 0.346058 -0.254061 13.409948 1.956855 -1.969705 13.613709 -0.582834 -1.917433 -11.415213 -0.162180 5.570525 -1.867854 -0.065889 16.490804 -17.037430 -13.567140 55.542075 -47.777511 -29.687893 17.324129 -3.168337 -25.285583 -7.335416 -0.193101 -0.587286 -2.362602 -21.061518 8.387703 -22.207925 -57.860396 -0.268022 -13.054326 -2.739817 7.344228 1.304555 -52.567974 10.598568 -108.519662 83.672679 -104.499185 -2.550686 -23.428357 0.298344 -0.002140 -0.003411 -0.000950 2.229783 -54.268279 -4.988061 100.032262 80.943948 107.065697 9.664118 -20.503350 -10.299382 -0.001968 0.000210 -0.000874
